<svg width="243" height="65" viewBox="0 0 243 65" fill="none" xmlns="http://www.w3.org/2000/svg">
<path d="M46.9153 0V10.1991H29.8718V63H17.0434V10.1991H0V0H46.9153Z" fill="#1E1E1E"/>
<path d="M89.2626 63L75.1513 38.4499H69.1037V63H56.2753V0H80.2827C85.2308 0 89.4458 0.872492 92.9278 2.61748C96.4098 4.30229 99.006 6.61891 100.716 9.56734C102.488 12.4556 103.374 15.7049 103.374 19.3152C103.374 23.467 102.152 27.2278 99.7086 30.5974C97.265 33.9069 93.6303 36.1934 88.8044 37.457L104.107 63H89.2626ZM69.1037 28.9728H79.8245C83.3065 28.9728 85.9028 28.1605 87.6132 26.5358C89.3237 24.851 90.1789 22.5344 90.1789 19.586C90.1789 16.6977 89.3237 14.4713 87.6132 12.9069C85.9028 11.2822 83.3065 10.4699 79.8245 10.4699H69.1037V28.9728Z" fill="#1E1E1E"/>
<path d="M209.28 0C215.999 0 221.894 1.2937 226.965 3.88109C232.096 6.46848 236.036 10.1691 238.785 14.9828C241.595 19.7364 243 25.2722 243 31.5903C243 37.9083 241.595 43.4441 238.785 48.1977C236.036 52.8911 232.096 56.5315 226.965 59.1189C221.894 61.7063 215.999 63 209.28 63H186.922V0H209.28ZM208.821 52.2593C215.541 52.2593 220.734 50.4542 224.399 46.8438C228.064 43.2335 229.897 38.149 229.897 31.5903C229.897 25.0315 228.064 19.9169 224.399 16.2464C220.734 12.5158 215.541 10.6504 208.821 10.6504H199.75V52.2593H208.821Z" fill="#1E1E1E"/>
<rect x="116" y="3" width="59" height="59" rx="29.5" stroke="url(#paint0_linear_45_943)" stroke-width="6"/>
<circle cx="145.5" cy="32.5" r="4.5" fill="#3DBCD8"/>
<defs>
<linearGradient id="paint0_linear_45_943" x1="145.5" y1="0" x2="145.5" y2="65" gradientUnits="userSpaceOnUse">
<stop stop-color="#1F2BCC"/>
<stop offset="1" stop-color="#3CB0EC"/>
</linearGradient>
</defs>
</svg>
