<svg width="152" height="49" viewBox="0 0 152 49" fill="none" xmlns="http://www.w3.org/2000/svg">
  <defs>
    <linearGradient id="topixA" x1="24" y1="5" x2="57" y2="34" gradientUnits="userSpaceOnUse">
      <stop stop-color="#2837FF"/>
      <stop offset="1" stop-color="#6B3CFF"/>
    </linearGradient>
    <linearGradient id="topixB" x1="46" y1="2" x2="88" y2="34" gradientUnits="userSpaceOnUse">
      <stop stop-color="#58F0D1"/>
      <stop offset="1" stop-color="#14C8A8"/>
    </linearGradient>
    <linearGradient id="topixC" x1="18" y1="22" x2="69" y2="46" gradientUnits="userSpaceOnUse">
      <stop stop-color="#1F42FF"/>
      <stop offset="1" stop-color="#0F1C6E"/>
    </linearGradient>
  </defs>
  <path d="M32.861 5.521H49.96L31.942 23.742L15.573 23.722L32.861 5.521Z" fill="url(#topixA)"/>
  <path d="M49.729 5.521H66.62L52.424 19.933L43.995 11.703L49.729 5.521Z" fill="url(#topixB)"/>
  <path d="M51.368 20.991L69.387 39.18H52.206L42.578 29.547L13.52 29.543L24.859 18.178L51.368 20.991Z" fill="url(#topixC)"/>
  <path d="M88.1 10.739H100.701V14.861H95.755V38H93.045V14.861H88.1V10.739Z" fill="#1F2937"/>
  <path d="M101.661 30.614C101.661 25.867 104.861 22.262 109.287 22.262C113.713 22.262 116.913 25.867 116.913 30.614C116.913 35.399 113.713 39 109.287 39C104.861 39 101.661 35.399 101.661 30.614ZM114.32 30.614C114.32 27.161 112.216 24.684 109.287 24.684C106.358 24.684 104.254 27.161 104.254 30.614C104.254 34.108 106.358 36.578 109.287 36.578C112.216 36.578 114.32 34.108 114.32 30.614Z" fill="#1F2937"/>
  <path d="M119.196 22.639H121.714V24.684C122.47 23.287 124.119 22.262 126.15 22.262C130.235 22.262 132.943 25.674 132.943 30.577C132.943 35.474 130.235 39 126.15 39C124.157 39 122.583 38.089 121.714 36.692V44.019H119.196V22.639ZM130.35 30.577C130.35 27.161 128.431 24.684 125.469 24.684C122.659 24.684 121.525 26.995 121.525 30.577C121.525 34.222 122.659 36.578 125.469 36.578C128.431 36.578 130.35 34.108 130.35 30.577Z" fill="#1F2937"/>
  <path d="M134.334 22.639H136.852V38H134.334V22.639ZM134.183 16.755C134.183 15.773 134.976 14.974 135.982 14.974C136.988 14.974 137.781 15.773 137.781 16.755C137.781 17.776 136.988 18.574 135.982 18.574C134.976 18.574 134.183 17.776 134.183 16.755Z" fill="#1F2937"/>
  <path d="M139.189 22.639H142.156L145.92 28.223L149.722 22.639H152L147.094 29.839L152 38H149.071L145.58 32.282L142.005 38H139.727L144.368 30.651L139.189 22.639Z" fill="#1F2937"/>
</svg>